<mxfile host="app.diagrams.net" agent="Mozilla/5.0 (Windows NT 10.0; Win64; x64) AppleWebKit/537.36 (KHTML, like Gecko) Chrome/127.0.0.0 Safari/537.36" version="24.7.6">
  <diagram name="第 1 页" id="gtpTsQSYxkaPATvE2j1K">
    <mxGraphModel dx="1077" dy="647" grid="1" gridSize="10" guides="1" tooltips="1" connect="1" arrows="1" fold="1" page="1" pageScale="1" pageWidth="827" pageHeight="1169" math="0" shadow="0">
      <root>
        <mxCell id="0" />
        <mxCell id="1" parent="0" />
        <mxCell id="t23KufDyzYEO6K5p8194-3" value="" style="edgeStyle=orthogonalEdgeStyle;rounded=0;orthogonalLoop=1;jettySize=auto;html=1;" edge="1" parent="1" source="t23KufDyzYEO6K5p8194-1" target="t23KufDyzYEO6K5p8194-2">
          <mxGeometry relative="1" as="geometry" />
        </mxCell>
        <mxCell id="t23KufDyzYEO6K5p8194-1" value="开始" style="ellipse;whiteSpace=wrap;html=1;" vertex="1" parent="1">
          <mxGeometry x="350" width="120" height="80" as="geometry" />
        </mxCell>
        <mxCell id="t23KufDyzYEO6K5p8194-9" value="" style="edgeStyle=orthogonalEdgeStyle;rounded=0;orthogonalLoop=1;jettySize=auto;html=1;" edge="1" parent="1" source="t23KufDyzYEO6K5p8194-2" target="t23KufDyzYEO6K5p8194-8">
          <mxGeometry relative="1" as="geometry" />
        </mxCell>
        <mxCell id="t23KufDyzYEO6K5p8194-13" value="" style="edgeStyle=orthogonalEdgeStyle;rounded=0;orthogonalLoop=1;jettySize=auto;html=1;" edge="1" parent="1" source="t23KufDyzYEO6K5p8194-2" target="t23KufDyzYEO6K5p8194-12">
          <mxGeometry relative="1" as="geometry" />
        </mxCell>
        <mxCell id="t23KufDyzYEO6K5p8194-2" value="风险管控措施" style="whiteSpace=wrap;html=1;" vertex="1" parent="1">
          <mxGeometry x="350" y="170" width="120" height="60" as="geometry" />
        </mxCell>
        <mxCell id="t23KufDyzYEO6K5p8194-11" value="" style="edgeStyle=orthogonalEdgeStyle;rounded=0;orthogonalLoop=1;jettySize=auto;html=1;" edge="1" parent="1" source="t23KufDyzYEO6K5p8194-8" target="t23KufDyzYEO6K5p8194-10">
          <mxGeometry relative="1" as="geometry" />
        </mxCell>
        <mxCell id="t23KufDyzYEO6K5p8194-8" value="新增" style="whiteSpace=wrap;html=1;" vertex="1" parent="1">
          <mxGeometry x="160" y="300" width="120" height="60" as="geometry" />
        </mxCell>
        <mxCell id="t23KufDyzYEO6K5p8194-23" style="edgeStyle=orthogonalEdgeStyle;rounded=0;orthogonalLoop=1;jettySize=auto;html=1;exitX=0.5;exitY=1;exitDx=0;exitDy=0;entryX=0;entryY=0.5;entryDx=0;entryDy=0;" edge="1" parent="1" source="t23KufDyzYEO6K5p8194-10" target="t23KufDyzYEO6K5p8194-22">
          <mxGeometry relative="1" as="geometry" />
        </mxCell>
        <mxCell id="t23KufDyzYEO6K5p8194-10" value="根据风险管控措施的隐患排查内容数据和当前时间生成对应条数的数据" style="whiteSpace=wrap;html=1;" vertex="1" parent="1">
          <mxGeometry x="160" y="440" width="120" height="60" as="geometry" />
        </mxCell>
        <mxCell id="t23KufDyzYEO6K5p8194-15" value="" style="edgeStyle=orthogonalEdgeStyle;rounded=0;orthogonalLoop=1;jettySize=auto;html=1;" edge="1" parent="1" source="t23KufDyzYEO6K5p8194-12" target="t23KufDyzYEO6K5p8194-14">
          <mxGeometry relative="1" as="geometry" />
        </mxCell>
        <mxCell id="t23KufDyzYEO6K5p8194-19" value="" style="edgeStyle=orthogonalEdgeStyle;rounded=0;orthogonalLoop=1;jettySize=auto;html=1;" edge="1" parent="1" source="t23KufDyzYEO6K5p8194-12" target="t23KufDyzYEO6K5p8194-18">
          <mxGeometry relative="1" as="geometry" />
        </mxCell>
        <mxCell id="t23KufDyzYEO6K5p8194-12" value="修改" style="whiteSpace=wrap;html=1;" vertex="1" parent="1">
          <mxGeometry x="550" y="300" width="120" height="60" as="geometry" />
        </mxCell>
        <mxCell id="t23KufDyzYEO6K5p8194-17" value="" style="edgeStyle=orthogonalEdgeStyle;rounded=0;orthogonalLoop=1;jettySize=auto;html=1;" edge="1" parent="1" source="t23KufDyzYEO6K5p8194-14" target="t23KufDyzYEO6K5p8194-16">
          <mxGeometry relative="1" as="geometry" />
        </mxCell>
        <mxCell id="t23KufDyzYEO6K5p8194-14" value="修改原有的风险管控措施的排查内容" style="whiteSpace=wrap;html=1;" vertex="1" parent="1">
          <mxGeometry x="550" y="440" width="120" height="60" as="geometry" />
        </mxCell>
        <mxCell id="t23KufDyzYEO6K5p8194-24" style="edgeStyle=orthogonalEdgeStyle;rounded=0;orthogonalLoop=1;jettySize=auto;html=1;exitX=0.5;exitY=1;exitDx=0;exitDy=0;entryX=1;entryY=0.5;entryDx=0;entryDy=0;" edge="1" parent="1" source="t23KufDyzYEO6K5p8194-16" target="t23KufDyzYEO6K5p8194-22">
          <mxGeometry relative="1" as="geometry" />
        </mxCell>
        <mxCell id="t23KufDyzYEO6K5p8194-16" value="修改对应的隐患排查任务" style="whiteSpace=wrap;html=1;" vertex="1" parent="1">
          <mxGeometry x="550" y="580" width="120" height="60" as="geometry" />
        </mxCell>
        <mxCell id="t23KufDyzYEO6K5p8194-21" value="" style="edgeStyle=orthogonalEdgeStyle;rounded=0;orthogonalLoop=1;jettySize=auto;html=1;" edge="1" parent="1" source="t23KufDyzYEO6K5p8194-18" target="t23KufDyzYEO6K5p8194-20">
          <mxGeometry relative="1" as="geometry" />
        </mxCell>
        <mxCell id="t23KufDyzYEO6K5p8194-18" value="新增新的排查内容" style="whiteSpace=wrap;html=1;" vertex="1" parent="1">
          <mxGeometry x="750" y="440" width="120" height="60" as="geometry" />
        </mxCell>
        <mxCell id="t23KufDyzYEO6K5p8194-25" style="edgeStyle=orthogonalEdgeStyle;rounded=0;orthogonalLoop=1;jettySize=auto;html=1;exitX=0.5;exitY=1;exitDx=0;exitDy=0;entryX=1;entryY=0.5;entryDx=0;entryDy=0;" edge="1" parent="1" source="t23KufDyzYEO6K5p8194-20" target="t23KufDyzYEO6K5p8194-22">
          <mxGeometry relative="1" as="geometry" />
        </mxCell>
        <mxCell id="t23KufDyzYEO6K5p8194-20" value="根据填写信息和当前时间生成隐患排查任务" style="whiteSpace=wrap;html=1;" vertex="1" parent="1">
          <mxGeometry x="750" y="580" width="120" height="60" as="geometry" />
        </mxCell>
        <mxCell id="t23KufDyzYEO6K5p8194-22" value="隐患排查任务" style="rounded=0;whiteSpace=wrap;html=1;" vertex="1" parent="1">
          <mxGeometry x="354" y="690" width="120" height="60" as="geometry" />
        </mxCell>
      </root>
    </mxGraphModel>
  </diagram>
</mxfile>
